<svg xmlns="http://www.w3.org/2000/svg" xmlns:xlink="http://www.w3.org/1999/xlink" width="175" height="60" viewBox="0 0 175 60">
  <defs>
    <clipPath id="clip-path">
      <rect id="사각형_351296" data-name="사각형 351296" width="175" height="60" transform="translate(240 13)" fill="#fff"/>
    </clipPath>
    <clipPath id="clip-path-2">
      <rect id="사각형_351259" data-name="사각형 351259" width="175" height="52.043" fill="none"/>
    </clipPath>
  </defs>
  <g id="logo-cnx-catalyst-navy" transform="translate(-240 -13)" clip-path="url(#clip-path)">
    <g id="_2024_newlogo" data-name="2024_newlogo" transform="translate(240 16.979)">
      <g id="그룹_470701" data-name="그룹 470701" clip-path="url(#clip-path-2)">
        <path id="패스_847790" data-name="패스 847790" d="M459.7,6.494h-6.494a3.247,3.247,0,0,1,0-6.494H459.7a3.247,3.247,0,0,1,0,6.494" transform="translate(-312.544)" fill="#25e2cc"/>
        <path id="패스_847791" data-name="패스 847791" d="M0,38.077c0-5.057,4.113-9.019,9.547-9.019a10.376,10.376,0,0,1,6.378,1.925l-2,3.736a6.591,6.591,0,0,0-3.811-1.17c-3.019,0-5.057,1.887-5.057,4.528s2,4.528,4.981,4.528a6.57,6.57,0,0,0,3.887-1.17l1.962,3.7A10.549,10.549,0,0,1,9.547,47.1C4,47.1,0,43.171,0,38.077" transform="translate(0 -20.184)" fill="#003d5b"/>
        <path id="패스_847792" data-name="패스 847792" d="M54.828,38.077a9.4,9.4,0,1,1,9.4,9.019,9.106,9.106,0,0,1-9.4-9.019m13.812,0a4.417,4.417,0,1,0-4.415,4.528,4.422,4.422,0,0,0,4.415-4.528" transform="translate(-38.084 -20.184)" fill="#003d5b"/>
        <path id="패스_847793" data-name="패스 847793" d="M142.343,37.171v9.585H137.4V37.851c0-2.642-1.547-4.34-3.812-4.34A3.963,3.963,0,0,0,129.55,37.7v9.057h-4.943V29.4h3.547l.189,2.944a7.022,7.022,0,0,1,6.378-3.283c4.641,0,7.623,3.17,7.623,8.113" transform="translate(-86.552 -20.184)" fill="#003d5b"/>
        <path id="패스_847794" data-name="패스 847794" d="M190.186,38.077c0-5.057,4.113-9.019,9.547-9.019a10.376,10.376,0,0,1,6.378,1.925l-2,3.736a6.592,6.592,0,0,0-3.811-1.17c-3.019,0-5.057,1.887-5.057,4.528s2,4.528,4.981,4.528a6.57,6.57,0,0,0,3.887-1.17l1.962,3.7a10.549,10.549,0,0,1-6.34,1.962c-5.547,0-9.547-3.925-9.547-9.019" transform="translate(-132.104 -20.184)" fill="#003d5b"/>
        <path id="패스_847795" data-name="패스 847795" d="M262.76,39.436H250.005a5.109,5.109,0,0,0,5.208,3.509,6.68,6.68,0,0,0,4.6-1.773l2.038,3.547a10.262,10.262,0,0,1-7.17,2.378c-5.509,0-9.547-3.925-9.547-9.019a8.8,8.8,0,0,1,9.057-9.019c5.245,0,8.642,3.849,8.642,9.057,0,.642-.075,1.321-.075,1.321m-12.717-3.17h8.076a3.639,3.639,0,0,0-3.736-3.283,4.2,4.2,0,0,0-4.34,3.283" transform="translate(-170.273 -20.184)" fill="#003d5b"/>
        <path id="패스_847796" data-name="패스 847796" d="M328.944,37.171v9.585H324V37.851c0-2.642-1.547-4.34-3.812-4.34a3.963,3.963,0,0,0-4.038,4.189v9.057h-4.943V29.4h3.547l.189,2.944a7.022,7.022,0,0,1,6.378-3.283c4.641,0,7.623,3.17,7.623,8.113" transform="translate(-216.166 -20.184)" fill="#003d5b"/>
        <path id="패스_847797" data-name="패스 847797" d="M439.994,29.208l-.415,4.906a4.278,4.278,0,0,0-1.736-.34,4.132,4.132,0,0,0-4.453,4.264v8.717h-4.944V29.4h4.113l.189,3.4c.6-2.113,2.755-3.736,5.736-3.736a6.4,6.4,0,0,1,1.51.151" transform="translate(-297.6 -20.183)" fill="#003d5b"/>
        <rect id="사각형_351257" data-name="사각형 351257" width="4.943" height="17.359" transform="translate(144.685 9.214)" fill="#003d5b"/>
        <path id="패스_847798" data-name="패스 847798" d="M508.456,47.528l-3.623-5.51-3.623,5.51H495.55l6.227-8.717-5.925-8.642h5.736l3.358,5.321,3.51-5.321h5.623L507.928,38.7l6.34,8.83Z" transform="translate(-344.211 -20.956)" fill="#003d5b"/>
        <path id="패스_847799" data-name="패스 847799" d="M386,28.912a5.2,5.2,0,0,1-2.868.943c-1.774,0-3.057-.755-3.057-2.793v-6.3h6.453V16.609H380.08V10.647h-4.793v5.97h-2.708a12.153,12.153,0,0,1,2.558,7.767h0v3.17c0,4.339,2.6,6.755,6.868,6.755a9.063,9.063,0,0,0,5.7-1.736Z" transform="translate(-258.795 -7.395)" fill="#003d5b"/>
        <path id="패스_847800" data-name="패스 847800" d="M477.717,3.247A3.247,3.247,0,1,1,474.47,0a3.247,3.247,0,0,1,3.247,3.247" transform="translate(-327.313 0)" fill="#003d5b"/>
        <path id="패스_847801" data-name="패스 847801" d="M293.733,121.821a3.958,3.958,0,0,1,1.965-.487,3.784,3.784,0,0,1,1.7.392,3.434,3.434,0,0,1,1.342,1.214l1.542-.992a4.271,4.271,0,0,0-1.849-1.787,5.951,5.951,0,0,0-2.715-.6,6.279,6.279,0,0,0-3.053.729,5.37,5.37,0,0,0-2.1,2.018,6.128,6.128,0,0,0,0,5.915,5.446,5.446,0,0,0,2.1,2.029,6.211,6.211,0,0,0,3.053.739,5.769,5.769,0,0,0,2.715-.624,4.418,4.418,0,0,0,1.849-1.785l-1.542-.971a3.434,3.434,0,0,1-1.342,1.214,3.78,3.78,0,0,1-1.7.392,3.939,3.939,0,0,1-1.965-.487,3.556,3.556,0,0,1-1.373-1.374,4.144,4.144,0,0,1-.507-2.091,4.086,4.086,0,0,1,.507-2.08,3.6,3.6,0,0,1,1.373-1.364" transform="translate(-201.298 -83.047)" fill="#067785"/>
        <path id="패스_847802" data-name="패스 847802" d="M334.8,119.56a8.742,8.742,0,0,0-2.548.37,6.128,6.128,0,0,0-2.08,1.068l.846,1.52a5.013,5.013,0,0,1,1.606-.875,5.913,5.913,0,0,1,1.943-.328,3.16,3.16,0,0,1,2.249.708,2.6,2.6,0,0,1,.753,2v.4h-3.212a6.538,6.538,0,0,0-2.651.444,2.991,2.991,0,0,0-1.417,1.185,3.194,3.194,0,0,0-.433,1.647,2.957,2.957,0,0,0,.507,1.7,3.357,3.357,0,0,0,1.446,1.172,5.276,5.276,0,0,0,2.187.423,5.1,5.1,0,0,0,2.558-.581,3.214,3.214,0,0,0,1.118-1.1v1.553H339.6V124.1a4.383,4.383,0,0,0-1.245-3.423,5.139,5.139,0,0,0-3.549-1.119m2.768,7.882a2.9,2.9,0,0,1-1.238,1.479,3.853,3.853,0,0,1-2,.507,2.951,2.951,0,0,1-1.816-.5,1.573,1.573,0,0,1-.653-1.321,1.641,1.641,0,0,1,.526-1.226,3.036,3.036,0,0,1,2.049-.507h3.129Z" transform="translate(-229.122 -83.047)" fill="#067785"/>
        <path id="패스_847803" data-name="패스 847803" d="M374.492,123.945a1.688,1.688,0,0,1-1.3-.486,1.968,1.968,0,0,1-.454-1.394V116h3.212v-1.668h-3.212V111.88H370.71v2.452h-1.9V116h1.9v6.149a3.468,3.468,0,0,0,.93,2.6,3.591,3.591,0,0,0,2.62.908,4.7,4.7,0,0,0,1.341-.191,2.919,2.919,0,0,0,1.109-.592l-.635-1.458a2.387,2.387,0,0,1-1.583.53" transform="translate(-256.175 -77.712)" fill="#067785"/>
        <path id="패스_847804" data-name="패스 847804" d="M404.814,119.56a8.721,8.721,0,0,0-2.546.37A6.116,6.116,0,0,0,400.187,121l.844,1.52a5.032,5.032,0,0,1,1.606-.875,5.932,5.932,0,0,1,1.945-.328,3.166,3.166,0,0,1,2.249.708,2.61,2.61,0,0,1,.751,2v.4H404.37a6.55,6.55,0,0,0-2.651.444,3,3,0,0,0-1.417,1.185,3.194,3.194,0,0,0-.433,1.647,2.968,2.968,0,0,0,.507,1.7,3.353,3.353,0,0,0,1.448,1.172,5.278,5.278,0,0,0,2.187.423,5.094,5.094,0,0,0,2.556-.581,3.206,3.206,0,0,0,1.119-1.1v1.553h1.922V124.1a4.378,4.378,0,0,0-1.247-3.423,5.133,5.133,0,0,0-3.549-1.119m2.768,7.882a2.9,2.9,0,0,1-1.236,1.479,3.858,3.858,0,0,1-2,.507,2.95,2.95,0,0,1-1.816-.5,1.575,1.575,0,0,1-.655-1.321,1.636,1.636,0,0,1,.528-1.226,3.032,3.032,0,0,1,2.049-.507h3.128Z" transform="translate(-277.751 -83.047)" fill="#067785"/>
        <rect id="사각형_351258" data-name="사각형 351258" width="2.029" height="15.676" transform="translate(135.619 32.141)" fill="#067785"/>
        <path id="패스_847805" data-name="패스 847805" d="M462,128.856l-3.906-8.947h-2.113l4.942,11.169-.356.789a3.457,3.457,0,0,1-.908,1.351,1.927,1.927,0,0,1-1.226.38,2.776,2.776,0,0,1-1.078-.212,3.055,3.055,0,0,1-.93-.612l-.865,1.521a3.691,3.691,0,0,0,1.31.771,4.691,4.691,0,0,0,1.563.265,4.233,4.233,0,0,0,1.583-.286,3.51,3.51,0,0,0,1.321-.961,6.475,6.475,0,0,0,1.088-1.859l5.43-12.318h-1.986Z" transform="translate(-316.435 -83.289)" fill="#067785"/>
        <path id="패스_847806" data-name="패스 847806" d="M504.991,125.265a6.2,6.2,0,0,0-1.384-.5c-.507-.119-1.015-.218-1.522-.3a12.383,12.383,0,0,1-1.384-.286,2.82,2.82,0,0,1-1.014-.475,1.051,1.051,0,0,1-.391-.877,1.29,1.29,0,0,1,.655-1.109,3.645,3.645,0,0,1,1.986-.433,7.384,7.384,0,0,1,1.649.189,4.792,4.792,0,0,1,1.584.7l.866-1.606a5.546,5.546,0,0,0-1.848-.749,9.723,9.723,0,0,0-2.23-.265,6.741,6.741,0,0,0-2.481.413,3.613,3.613,0,0,0-1.616,1.173,2.868,2.868,0,0,0-.571,1.774,2.8,2.8,0,0,0,.38,1.553,2.618,2.618,0,0,0,1.014.909,6,6,0,0,0,1.394.505c.507.12,1.015.22,1.522.3s.968.167,1.382.265a2.572,2.572,0,0,1,1,.444.984.984,0,0,1,.38.824,1.266,1.266,0,0,1-.622,1.121,3.921,3.921,0,0,1-2.039.4,6.974,6.974,0,0,1-2.154-.339,6.849,6.849,0,0,1-1.776-.824l-.844,1.606a6.232,6.232,0,0,0,1.975.93,9.134,9.134,0,0,0,2.651.38,7.213,7.213,0,0,0,2.577-.413,3.817,3.817,0,0,0,1.67-1.15,2.728,2.728,0,0,0,.592-1.754,2.654,2.654,0,0,0-.39-1.522,2.7,2.7,0,0,0-1.015-.887" transform="translate(-345.17 -83.047)" fill="#067785"/>
        <path id="패스_847807" data-name="패스 847807" d="M538.231,123.415a2.387,2.387,0,0,1-1.583.53,1.689,1.689,0,0,1-1.3-.486,1.969,1.969,0,0,1-.454-1.394V116h3.212v-1.668h-3.212V111.88h-2.029v2.452h-1.9V116h1.9v6.149a3.468,3.468,0,0,0,.93,2.6,3.59,3.59,0,0,0,2.62.908,4.694,4.694,0,0,0,1.341-.191,2.912,2.912,0,0,0,1.109-.592Z" transform="translate(-368.809 -77.712)" fill="#067785"/>
        <path id="패스_847808" data-name="패스 847808" d="M559.709,30.531h.613v1.555h.444V30.531h.613V30.17h-1.67Z" transform="translate(-388.776 -20.956)" fill="#003d5b"/>
        <path id="패스_847809" data-name="패스 847809" d="M568.115,32.085l-.005-1.916h-.364l-.706,1.19-.718-1.19h-.367v1.916h.416V30.96l.561.923h.2l.564-.947,0,1.15Z" transform="translate(-393.115 -20.956)" fill="#003d5b"/>
      </g>
    </g>
  </g>
</svg>
