<svg width="200" height="400" viewBox="0 0 200 400" fill="none" xmlns="http://www.w3.org/2000/svg">
  <rect width="200" height="400" fill="#333333"/>
  <rect x="10" y="10" width="180" height="380" stroke="#ffffff" stroke-width="5" rx="0"/>
  <text x="100" y="50" font-family="Arial" font-size="16" fill="#ffffff" text-anchor="middle" font-weight="bold">MOMENTS</text>
  <rect x="30" y="70" width="140" height="280" fill="#333333" stroke="#ffffff" stroke-width="2" rx="0"/>
  <line x1="30" y1="140" x2="170" y2="140" stroke="#ffffff" stroke-width="2"/>
  <line x1="30" y1="210" x2="170" y2="210" stroke="#ffffff" stroke-width="2"/>
  <line x1="30" y1="280" x2="170" y2="280" stroke="#ffffff" stroke-width="2"/>
  
  <!-- 모던한 장식 -->
  <line x1="5" y1="5" x2="25" y2="5" stroke="#ffffff" stroke-width="2"/>
  <line x1="5" y1="5" x2="5" y2="25" stroke="#ffffff" stroke-width="2"/>
  
  <line x1="175" y1="5" x2="195" y2="5" stroke="#ffffff" stroke-width="2"/>
  <line x1="195" y1="5" x2="195" y2="25" stroke="#ffffff" stroke-width="2"/>
  
  <line x1="5" y1="395" x2="25" y2="395" stroke="#ffffff" stroke-width="2"/>
  <line x1="5" y1="375" x2="5" y2="395" stroke="#ffffff" stroke-width="2"/>
  
  <line x1="175" y1="395" x2="195" y2="395" stroke="#ffffff" stroke-width="2"/>
  <line x1="195" y1="375" x2="195" y2="395" stroke="#ffffff" stroke-width="2"/>
  
  <text x="100" y="370" font-family="Arial" font-size="12" fill="#ffffff" text-anchor="middle">CAPTURED FOREVER</text>
</svg>